<svg width="25" height="25" viewBox="0 0 25 25" fill="none" xmlns="http://www.w3.org/2000/svg">
<path d="M12.3815 9.12933C11.5858 9.12933 10.8228 9.4454 10.2601 10.008C9.69754 10.5706 9.38147 11.3337 9.38147 12.1293C9.38147 12.925 9.69754 13.688 10.2601 14.2507C10.8228 14.8133 11.5858 15.1293 12.3815 15.1293C13.1771 15.1293 13.9402 14.8133 14.5028 14.2507C15.0654 13.688 15.3815 12.925 15.3815 12.1293C15.3815 11.3337 15.0654 10.5706 14.5028 10.008C13.9402 9.4454 13.1771 9.12933 12.3815 9.12933ZM12.3815 17.1293C11.0554 17.1293 9.78362 16.6025 8.84594 15.6649C7.90825 14.7272 7.38147 13.4554 7.38147 12.1293C7.38147 10.8033 7.90825 9.53148 8.84594 8.5938C9.78362 7.65612 11.0554 7.12933 12.3815 7.12933C13.7076 7.12933 14.9793 7.65612 15.917 8.5938C16.8547 9.53148 17.3815 10.8033 17.3815 12.1293C17.3815 13.4554 16.8547 14.7272 15.917 15.6649C14.9793 16.6025 13.7076 17.1293 12.3815 17.1293V17.1293ZM12.3815 4.62933C7.38147 4.62933 3.11147 7.73933 1.38147 12.1293C3.11147 16.5193 7.38147 19.6293 12.3815 19.6293C17.3815 19.6293 21.6515 16.5193 23.3815 12.1293C21.6515 7.73933 17.3815 4.62933 12.3815 4.62933Z" fill="#fff"/>
</svg>
